<mxfile host="Electron" modified="2024-07-10T09:37:12.860Z" agent="Mozilla/5.0 (Windows NT 10.0; Win64; x64) AppleWebKit/537.36 (KHTML, like Gecko) draw.io/21.6.5 Chrome/114.0.5735.243 Electron/25.3.1 Safari/537.36" etag="H2AJ53TrYVXYtIcxkfFy" version="21.6.5" type="device">
  <diagram name="Page-1" id="Mzgl0cdMvpgIzvXXhVm0">
    <mxGraphModel dx="850" dy="494" grid="0" gridSize="10" guides="1" tooltips="1" connect="1" arrows="1" fold="1" page="1" pageScale="1" pageWidth="1654" pageHeight="1169" math="0" shadow="0">
      <root>
        <mxCell id="0" />
        <mxCell id="1" parent="0" />
        <mxCell id="sMb85mMRudP5CPXSBzpP-137" value="" style="group" vertex="1" connectable="0" parent="1">
          <mxGeometry x="260" y="140" width="1160" height="964" as="geometry" />
        </mxCell>
        <mxCell id="sMb85mMRudP5CPXSBzpP-15" value="" style="group" vertex="1" connectable="0" parent="sMb85mMRudP5CPXSBzpP-137">
          <mxGeometry width="350" height="210" as="geometry" />
        </mxCell>
        <mxCell id="sMb85mMRudP5CPXSBzpP-1" value="" style="rounded=0;whiteSpace=wrap;html=1;" vertex="1" parent="sMb85mMRudP5CPXSBzpP-15">
          <mxGeometry x="30" y="150" width="170" height="40" as="geometry" />
        </mxCell>
        <mxCell id="sMb85mMRudP5CPXSBzpP-2" value="&lt;font style=&quot;font-size: 16px;&quot;&gt;User&lt;/font&gt;" style="text;html=1;strokeColor=none;fillColor=none;align=center;verticalAlign=middle;whiteSpace=wrap;rounded=0;" vertex="1" parent="sMb85mMRudP5CPXSBzpP-15">
          <mxGeometry x="80" y="155" width="70" height="30" as="geometry" />
        </mxCell>
        <mxCell id="sMb85mMRudP5CPXSBzpP-6" value="" style="group" vertex="1" connectable="0" parent="sMb85mMRudP5CPXSBzpP-15">
          <mxGeometry y="40" width="120" height="50" as="geometry" />
        </mxCell>
        <mxCell id="sMb85mMRudP5CPXSBzpP-3" value="" style="ellipse;whiteSpace=wrap;html=1;" vertex="1" parent="sMb85mMRudP5CPXSBzpP-6">
          <mxGeometry width="120" height="50" as="geometry" />
        </mxCell>
        <mxCell id="sMb85mMRudP5CPXSBzpP-4" value="&lt;font style=&quot;font-size: 16px;&quot;&gt;&lt;u&gt;Id&lt;/u&gt;&lt;/font&gt;" style="text;html=1;strokeColor=none;fillColor=none;align=center;verticalAlign=middle;whiteSpace=wrap;rounded=0;" vertex="1" parent="sMb85mMRudP5CPXSBzpP-6">
          <mxGeometry x="30" y="10" width="60" height="30" as="geometry" />
        </mxCell>
        <mxCell id="sMb85mMRudP5CPXSBzpP-7" value="" style="group" vertex="1" connectable="0" parent="sMb85mMRudP5CPXSBzpP-15">
          <mxGeometry x="100" width="120" height="50" as="geometry" />
        </mxCell>
        <mxCell id="sMb85mMRudP5CPXSBzpP-8" value="" style="ellipse;whiteSpace=wrap;html=1;" vertex="1" parent="sMb85mMRudP5CPXSBzpP-7">
          <mxGeometry width="120" height="50" as="geometry" />
        </mxCell>
        <mxCell id="sMb85mMRudP5CPXSBzpP-9" value="&lt;font style=&quot;font-size: 16px;&quot;&gt;email&lt;/font&gt;" style="text;html=1;strokeColor=none;fillColor=none;align=center;verticalAlign=middle;whiteSpace=wrap;rounded=0;" vertex="1" parent="sMb85mMRudP5CPXSBzpP-7">
          <mxGeometry x="30" y="10" width="60" height="30" as="geometry" />
        </mxCell>
        <mxCell id="sMb85mMRudP5CPXSBzpP-10" value="" style="endArrow=none;html=1;rounded=0;exitX=0.5;exitY=0;exitDx=0;exitDy=0;entryX=0.5;entryY=1;entryDx=0;entryDy=0;" edge="1" parent="sMb85mMRudP5CPXSBzpP-15" target="sMb85mMRudP5CPXSBzpP-8" source="sMb85mMRudP5CPXSBzpP-1">
          <mxGeometry width="50" height="50" relative="1" as="geometry">
            <mxPoint x="120" y="100" as="sourcePoint" />
            <mxPoint x="170" y="50" as="targetPoint" />
          </mxGeometry>
        </mxCell>
        <mxCell id="sMb85mMRudP5CPXSBzpP-11" value="" style="group" vertex="1" connectable="0" parent="sMb85mMRudP5CPXSBzpP-15">
          <mxGeometry x="220" y="30" width="120" height="50" as="geometry" />
        </mxCell>
        <mxCell id="sMb85mMRudP5CPXSBzpP-12" value="" style="ellipse;whiteSpace=wrap;html=1;" vertex="1" parent="sMb85mMRudP5CPXSBzpP-11">
          <mxGeometry width="120" height="50" as="geometry" />
        </mxCell>
        <mxCell id="sMb85mMRudP5CPXSBzpP-13" value="&lt;font style=&quot;font-size: 16px;&quot;&gt;password&lt;/font&gt;" style="text;html=1;strokeColor=none;fillColor=none;align=center;verticalAlign=middle;whiteSpace=wrap;rounded=0;" vertex="1" parent="sMb85mMRudP5CPXSBzpP-11">
          <mxGeometry x="30" y="10" width="60" height="30" as="geometry" />
        </mxCell>
        <mxCell id="sMb85mMRudP5CPXSBzpP-14" value="" style="endArrow=none;html=1;rounded=0;exitX=0.8;exitY=0.017;exitDx=0;exitDy=0;entryX=0;entryY=1;entryDx=0;entryDy=0;exitPerimeter=0;" edge="1" parent="sMb85mMRudP5CPXSBzpP-15" target="sMb85mMRudP5CPXSBzpP-12" source="sMb85mMRudP5CPXSBzpP-1">
          <mxGeometry width="50" height="50" relative="1" as="geometry">
            <mxPoint x="240" y="130" as="sourcePoint" />
            <mxPoint x="290" y="80" as="targetPoint" />
          </mxGeometry>
        </mxCell>
        <mxCell id="sMb85mMRudP5CPXSBzpP-5" value="" style="endArrow=none;html=1;rounded=0;exitX=0.25;exitY=0;exitDx=0;exitDy=0;entryX=0.5;entryY=1;entryDx=0;entryDy=0;" edge="1" parent="sMb85mMRudP5CPXSBzpP-15" source="sMb85mMRudP5CPXSBzpP-1" target="sMb85mMRudP5CPXSBzpP-3">
          <mxGeometry width="50" height="50" relative="1" as="geometry">
            <mxPoint x="70" y="150" as="sourcePoint" />
            <mxPoint x="120" y="100" as="targetPoint" />
          </mxGeometry>
        </mxCell>
        <mxCell id="sMb85mMRudP5CPXSBzpP-125" value="M" style="text;html=1;strokeColor=none;fillColor=none;align=center;verticalAlign=middle;whiteSpace=wrap;rounded=0;" vertex="1" parent="sMb85mMRudP5CPXSBzpP-15">
          <mxGeometry x="296" y="85" width="60" height="30" as="geometry" />
        </mxCell>
        <mxCell id="sMb85mMRudP5CPXSBzpP-16" value="" style="group" vertex="1" connectable="0" parent="sMb85mMRudP5CPXSBzpP-137">
          <mxGeometry x="600" width="340" height="210" as="geometry" />
        </mxCell>
        <mxCell id="sMb85mMRudP5CPXSBzpP-17" value="" style="rounded=0;whiteSpace=wrap;html=1;" vertex="1" parent="sMb85mMRudP5CPXSBzpP-16">
          <mxGeometry x="30" y="150" width="170" height="40" as="geometry" />
        </mxCell>
        <mxCell id="sMb85mMRudP5CPXSBzpP-18" value="&lt;font style=&quot;font-size: 16px;&quot;&gt;File&lt;/font&gt;" style="text;html=1;strokeColor=none;fillColor=none;align=center;verticalAlign=middle;whiteSpace=wrap;rounded=0;" vertex="1" parent="sMb85mMRudP5CPXSBzpP-16">
          <mxGeometry x="80" y="155" width="70" height="30" as="geometry" />
        </mxCell>
        <mxCell id="sMb85mMRudP5CPXSBzpP-25" value="" style="endArrow=none;html=1;rounded=0;exitX=0.5;exitY=0;exitDx=0;exitDy=0;entryX=0.5;entryY=1;entryDx=0;entryDy=0;" edge="1" parent="sMb85mMRudP5CPXSBzpP-16" source="sMb85mMRudP5CPXSBzpP-17" target="sMb85mMRudP5CPXSBzpP-23">
          <mxGeometry width="50" height="50" relative="1" as="geometry">
            <mxPoint x="120" y="100" as="sourcePoint" />
            <mxPoint x="170" y="50" as="targetPoint" />
          </mxGeometry>
        </mxCell>
        <mxCell id="sMb85mMRudP5CPXSBzpP-52" value="" style="group" vertex="1" connectable="0" parent="sMb85mMRudP5CPXSBzpP-16">
          <mxGeometry x="280" y="70" width="120" height="50" as="geometry" />
        </mxCell>
        <mxCell id="sMb85mMRudP5CPXSBzpP-53" value="" style="group" vertex="1" connectable="0" parent="sMb85mMRudP5CPXSBzpP-52">
          <mxGeometry width="120" height="50" as="geometry" />
        </mxCell>
        <mxCell id="sMb85mMRudP5CPXSBzpP-54" value="" style="ellipse;whiteSpace=wrap;html=1;" vertex="1" parent="sMb85mMRudP5CPXSBzpP-53">
          <mxGeometry x="10" y="-10" width="120" height="50" as="geometry" />
        </mxCell>
        <mxCell id="sMb85mMRudP5CPXSBzpP-55" value="&lt;font style=&quot;font-size: 16px;&quot;&gt;path&lt;/font&gt;" style="text;html=1;strokeColor=none;fillColor=none;align=center;verticalAlign=middle;whiteSpace=wrap;rounded=0;" vertex="1" parent="sMb85mMRudP5CPXSBzpP-53">
          <mxGeometry x="30" width="60" height="30" as="geometry" />
        </mxCell>
        <mxCell id="sMb85mMRudP5CPXSBzpP-22" value="" style="group" vertex="1" connectable="0" parent="sMb85mMRudP5CPXSBzpP-16">
          <mxGeometry x="-20" width="120" height="50" as="geometry" />
        </mxCell>
        <mxCell id="sMb85mMRudP5CPXSBzpP-23" value="" style="ellipse;whiteSpace=wrap;html=1;" vertex="1" parent="sMb85mMRudP5CPXSBzpP-22">
          <mxGeometry width="120" height="50" as="geometry" />
        </mxCell>
        <mxCell id="sMb85mMRudP5CPXSBzpP-24" value="&lt;font style=&quot;font-size: 16px;&quot;&gt;title&lt;/font&gt;" style="text;html=1;strokeColor=none;fillColor=none;align=center;verticalAlign=middle;whiteSpace=wrap;rounded=0;" vertex="1" parent="sMb85mMRudP5CPXSBzpP-22">
          <mxGeometry x="30" y="10" width="60" height="30" as="geometry" />
        </mxCell>
        <mxCell id="sMb85mMRudP5CPXSBzpP-46" value="" style="group" vertex="1" connectable="0" parent="sMb85mMRudP5CPXSBzpP-16">
          <mxGeometry x="110" width="120" height="50" as="geometry" />
        </mxCell>
        <mxCell id="sMb85mMRudP5CPXSBzpP-26" value="" style="group" vertex="1" connectable="0" parent="sMb85mMRudP5CPXSBzpP-46">
          <mxGeometry width="120" height="50" as="geometry" />
        </mxCell>
        <mxCell id="sMb85mMRudP5CPXSBzpP-27" value="" style="ellipse;whiteSpace=wrap;html=1;" vertex="1" parent="sMb85mMRudP5CPXSBzpP-26">
          <mxGeometry width="120" height="50" as="geometry" />
        </mxCell>
        <mxCell id="sMb85mMRudP5CPXSBzpP-28" value="&lt;font style=&quot;font-size: 16px;&quot;&gt;description&lt;/font&gt;" style="text;html=1;strokeColor=none;fillColor=none;align=center;verticalAlign=middle;whiteSpace=wrap;rounded=0;" vertex="1" parent="sMb85mMRudP5CPXSBzpP-26">
          <mxGeometry x="30" y="10" width="60" height="30" as="geometry" />
        </mxCell>
        <mxCell id="sMb85mMRudP5CPXSBzpP-29" value="" style="endArrow=none;html=1;rounded=0;exitX=0.8;exitY=0.017;exitDx=0;exitDy=0;exitPerimeter=0;entryX=0.25;entryY=0.96;entryDx=0;entryDy=0;entryPerimeter=0;" edge="1" parent="sMb85mMRudP5CPXSBzpP-16" target="sMb85mMRudP5CPXSBzpP-27">
          <mxGeometry width="50" height="50" relative="1" as="geometry">
            <mxPoint x="131" y="149.99999999999997" as="sourcePoint" />
            <mxPoint x="140" y="70" as="targetPoint" />
          </mxGeometry>
        </mxCell>
        <mxCell id="sMb85mMRudP5CPXSBzpP-56" value="" style="endArrow=none;html=1;rounded=0;exitX=0.882;exitY=0;exitDx=0;exitDy=0;entryX=0;entryY=1;entryDx=0;entryDy=0;exitPerimeter=0;" edge="1" parent="sMb85mMRudP5CPXSBzpP-16" target="sMb85mMRudP5CPXSBzpP-54" source="sMb85mMRudP5CPXSBzpP-17">
          <mxGeometry width="50" height="50" relative="1" as="geometry">
            <mxPoint x="300" y="170" as="sourcePoint" />
            <mxPoint x="350" y="120" as="targetPoint" />
          </mxGeometry>
        </mxCell>
        <mxCell id="sMb85mMRudP5CPXSBzpP-31" value="" style="group" vertex="1" connectable="0" parent="sMb85mMRudP5CPXSBzpP-137">
          <mxGeometry x="250" y="390" width="370" height="210" as="geometry" />
        </mxCell>
        <mxCell id="sMb85mMRudP5CPXSBzpP-32" value="" style="rounded=0;whiteSpace=wrap;html=1;" vertex="1" parent="sMb85mMRudP5CPXSBzpP-31">
          <mxGeometry x="30" y="150" width="170" height="40" as="geometry" />
        </mxCell>
        <mxCell id="sMb85mMRudP5CPXSBzpP-33" value="&lt;font style=&quot;font-size: 16px;&quot;&gt;file_stats&lt;/font&gt;" style="text;html=1;strokeColor=none;fillColor=none;align=center;verticalAlign=middle;whiteSpace=wrap;rounded=0;" vertex="1" parent="sMb85mMRudP5CPXSBzpP-31">
          <mxGeometry x="80" y="155" width="70" height="30" as="geometry" />
        </mxCell>
        <mxCell id="sMb85mMRudP5CPXSBzpP-34" value="" style="group" vertex="1" connectable="0" parent="sMb85mMRudP5CPXSBzpP-31">
          <mxGeometry x="-120" y="320" width="120" height="50" as="geometry" />
        </mxCell>
        <mxCell id="sMb85mMRudP5CPXSBzpP-35" value="" style="ellipse;whiteSpace=wrap;html=1;" vertex="1" parent="sMb85mMRudP5CPXSBzpP-34">
          <mxGeometry width="120" height="50" as="geometry" />
        </mxCell>
        <mxCell id="sMb85mMRudP5CPXSBzpP-36" value="&lt;font style=&quot;font-size: 16px;&quot;&gt;&lt;u&gt;Id&lt;/u&gt;&lt;/font&gt;" style="text;html=1;strokeColor=none;fillColor=none;align=center;verticalAlign=middle;whiteSpace=wrap;rounded=0;" vertex="1" parent="sMb85mMRudP5CPXSBzpP-34">
          <mxGeometry x="30" y="10" width="60" height="30" as="geometry" />
        </mxCell>
        <mxCell id="sMb85mMRudP5CPXSBzpP-37" value="" style="group" vertex="1" connectable="0" parent="sMb85mMRudP5CPXSBzpP-31">
          <mxGeometry x="125" y="370" width="120" height="50" as="geometry" />
        </mxCell>
        <mxCell id="sMb85mMRudP5CPXSBzpP-38" value="" style="ellipse;whiteSpace=wrap;html=1;" vertex="1" parent="sMb85mMRudP5CPXSBzpP-37">
          <mxGeometry width="120" height="50" as="geometry" />
        </mxCell>
        <mxCell id="sMb85mMRudP5CPXSBzpP-39" value="&lt;font style=&quot;font-size: 16px;&quot;&gt;download_count&lt;/font&gt;" style="text;html=1;strokeColor=none;fillColor=none;align=center;verticalAlign=middle;whiteSpace=wrap;rounded=0;" vertex="1" parent="sMb85mMRudP5CPXSBzpP-37">
          <mxGeometry x="30" y="10" width="60" height="30" as="geometry" />
        </mxCell>
        <mxCell id="sMb85mMRudP5CPXSBzpP-41" value="" style="group" vertex="1" connectable="0" parent="sMb85mMRudP5CPXSBzpP-31">
          <mxGeometry x="-10" y="360" width="120" height="50" as="geometry" />
        </mxCell>
        <mxCell id="sMb85mMRudP5CPXSBzpP-42" value="" style="ellipse;whiteSpace=wrap;html=1;" vertex="1" parent="sMb85mMRudP5CPXSBzpP-41">
          <mxGeometry width="120" height="50" as="geometry" />
        </mxCell>
        <mxCell id="sMb85mMRudP5CPXSBzpP-43" value="&lt;font style=&quot;font-size: 16px;&quot;&gt;file_id&lt;/font&gt;" style="text;html=1;strokeColor=none;fillColor=none;align=center;verticalAlign=middle;whiteSpace=wrap;rounded=0;" vertex="1" parent="sMb85mMRudP5CPXSBzpP-41">
          <mxGeometry x="30" y="10" width="60" height="30" as="geometry" />
        </mxCell>
        <mxCell id="sMb85mMRudP5CPXSBzpP-45" value="" style="endArrow=none;html=1;rounded=0;exitX=0.094;exitY=1.025;exitDx=0;exitDy=0;entryX=0.5;entryY=0;entryDx=0;entryDy=0;exitPerimeter=0;" edge="1" parent="sMb85mMRudP5CPXSBzpP-31" source="sMb85mMRudP5CPXSBzpP-32" target="sMb85mMRudP5CPXSBzpP-35">
          <mxGeometry width="50" height="50" relative="1" as="geometry">
            <mxPoint x="-10" y="90" as="sourcePoint" />
            <mxPoint x="-32.5" y="290" as="targetPoint" />
          </mxGeometry>
        </mxCell>
        <mxCell id="sMb85mMRudP5CPXSBzpP-44" value="" style="endArrow=none;html=1;rounded=0;exitX=0.5;exitY=0;exitDx=0;exitDy=0;entryX=0;entryY=1;entryDx=0;entryDy=0;" edge="1" parent="sMb85mMRudP5CPXSBzpP-31" source="sMb85mMRudP5CPXSBzpP-42">
          <mxGeometry width="50" height="50" relative="1" as="geometry">
            <mxPoint x="20" y="268" as="sourcePoint" />
            <mxPoint x="91.57359312880703" y="189.99766952966365" as="targetPoint" />
          </mxGeometry>
        </mxCell>
        <mxCell id="sMb85mMRudP5CPXSBzpP-40" value="" style="endArrow=none;html=1;rounded=0;exitX=0.553;exitY=1.025;exitDx=0;exitDy=0;entryX=0.5;entryY=0;entryDx=0;entryDy=0;exitPerimeter=0;" edge="1" parent="sMb85mMRudP5CPXSBzpP-31" source="sMb85mMRudP5CPXSBzpP-32" target="sMb85mMRudP5CPXSBzpP-38">
          <mxGeometry width="50" height="50" relative="1" as="geometry">
            <mxPoint x="230" y="180" as="sourcePoint" />
            <mxPoint x="300" y="450" as="targetPoint" />
          </mxGeometry>
        </mxCell>
        <mxCell id="sMb85mMRudP5CPXSBzpP-130" value="1" style="text;html=1;strokeColor=none;fillColor=none;align=center;verticalAlign=middle;whiteSpace=wrap;rounded=0;" vertex="1" parent="sMb85mMRudP5CPXSBzpP-31">
          <mxGeometry x="75" y="25" width="60" height="30" as="geometry" />
        </mxCell>
        <mxCell id="sMb85mMRudP5CPXSBzpP-131" value="M" style="text;html=1;strokeColor=none;fillColor=none;align=center;verticalAlign=middle;whiteSpace=wrap;rounded=0;" vertex="1" parent="sMb85mMRudP5CPXSBzpP-31">
          <mxGeometry x="310" y="75" width="60" height="30" as="geometry" />
        </mxCell>
        <mxCell id="sMb85mMRudP5CPXSBzpP-47" value="" style="group" vertex="1" connectable="0" parent="sMb85mMRudP5CPXSBzpP-137">
          <mxGeometry x="850" width="120" height="50" as="geometry" />
        </mxCell>
        <mxCell id="sMb85mMRudP5CPXSBzpP-48" value="" style="group" vertex="1" connectable="0" parent="sMb85mMRudP5CPXSBzpP-47">
          <mxGeometry width="120" height="50" as="geometry" />
        </mxCell>
        <mxCell id="sMb85mMRudP5CPXSBzpP-49" value="" style="ellipse;whiteSpace=wrap;html=1;" vertex="1" parent="sMb85mMRudP5CPXSBzpP-48">
          <mxGeometry width="120" height="50" as="geometry" />
        </mxCell>
        <mxCell id="sMb85mMRudP5CPXSBzpP-50" value="&lt;font style=&quot;font-size: 16px;&quot;&gt;uploaded_on&lt;/font&gt;" style="text;html=1;strokeColor=none;fillColor=none;align=center;verticalAlign=middle;whiteSpace=wrap;rounded=0;" vertex="1" parent="sMb85mMRudP5CPXSBzpP-48">
          <mxGeometry x="30" y="10" width="60" height="30" as="geometry" />
        </mxCell>
        <mxCell id="sMb85mMRudP5CPXSBzpP-19" value="" style="group" vertex="1" connectable="0" parent="sMb85mMRudP5CPXSBzpP-137">
          <mxGeometry x="440" y="10" width="120" height="50" as="geometry" />
        </mxCell>
        <mxCell id="sMb85mMRudP5CPXSBzpP-20" value="" style="ellipse;whiteSpace=wrap;html=1;" vertex="1" parent="sMb85mMRudP5CPXSBzpP-19">
          <mxGeometry width="120" height="50" as="geometry" />
        </mxCell>
        <mxCell id="sMb85mMRudP5CPXSBzpP-21" value="&lt;font style=&quot;font-size: 16px;&quot;&gt;&lt;u&gt;Id&lt;/u&gt;&lt;/font&gt;" style="text;html=1;strokeColor=none;fillColor=none;align=center;verticalAlign=middle;whiteSpace=wrap;rounded=0;" vertex="1" parent="sMb85mMRudP5CPXSBzpP-19">
          <mxGeometry x="30" y="10" width="60" height="30" as="geometry" />
        </mxCell>
        <mxCell id="sMb85mMRudP5CPXSBzpP-30" value="" style="endArrow=none;html=1;rounded=0;exitX=0.25;exitY=0;exitDx=0;exitDy=0;entryX=0.5;entryY=1;entryDx=0;entryDy=0;" edge="1" parent="sMb85mMRudP5CPXSBzpP-137" source="sMb85mMRudP5CPXSBzpP-17" target="sMb85mMRudP5CPXSBzpP-20">
          <mxGeometry width="50" height="50" relative="1" as="geometry">
            <mxPoint x="680" y="150" as="sourcePoint" />
            <mxPoint x="730" y="100" as="targetPoint" />
          </mxGeometry>
        </mxCell>
        <mxCell id="sMb85mMRudP5CPXSBzpP-51" value="" style="endArrow=none;html=1;rounded=0;exitX=0.712;exitY=0.033;exitDx=0;exitDy=0;entryX=0;entryY=1;entryDx=0;entryDy=0;exitPerimeter=0;" edge="1" parent="sMb85mMRudP5CPXSBzpP-137" target="sMb85mMRudP5CPXSBzpP-49" source="sMb85mMRudP5CPXSBzpP-17">
          <mxGeometry width="50" height="50" relative="1" as="geometry">
            <mxPoint x="870" y="100" as="sourcePoint" />
            <mxPoint x="920" y="50" as="targetPoint" />
          </mxGeometry>
        </mxCell>
        <mxCell id="sMb85mMRudP5CPXSBzpP-76" value="" style="group" vertex="1" connectable="0" parent="sMb85mMRudP5CPXSBzpP-137">
          <mxGeometry x="560" y="770" width="120" height="50" as="geometry" />
        </mxCell>
        <mxCell id="sMb85mMRudP5CPXSBzpP-77" value="" style="group" vertex="1" connectable="0" parent="sMb85mMRudP5CPXSBzpP-76">
          <mxGeometry width="120" height="50" as="geometry" />
        </mxCell>
        <mxCell id="sMb85mMRudP5CPXSBzpP-78" value="" style="ellipse;whiteSpace=wrap;html=1;" vertex="1" parent="sMb85mMRudP5CPXSBzpP-77">
          <mxGeometry width="120" height="50" as="geometry" />
        </mxCell>
        <mxCell id="sMb85mMRudP5CPXSBzpP-79" value="&lt;font style=&quot;font-size: 16px;&quot;&gt;email_count&lt;/font&gt;" style="text;html=1;strokeColor=none;fillColor=none;align=center;verticalAlign=middle;whiteSpace=wrap;rounded=0;" vertex="1" parent="sMb85mMRudP5CPXSBzpP-77">
          <mxGeometry x="30" y="10" width="60" height="30" as="geometry" />
        </mxCell>
        <mxCell id="sMb85mMRudP5CPXSBzpP-80" value="" style="endArrow=none;html=1;rounded=0;exitX=0.375;exitY=0;exitDx=0;exitDy=0;entryX=0.75;entryY=1;entryDx=0;entryDy=0;exitPerimeter=0;" edge="1" parent="sMb85mMRudP5CPXSBzpP-137" target="sMb85mMRudP5CPXSBzpP-32" source="sMb85mMRudP5CPXSBzpP-78">
          <mxGeometry width="50" height="50" relative="1" as="geometry">
            <mxPoint x="472.43000000000006" y="637.3199999999999" as="sourcePoint" />
            <mxPoint x="470.0035931288071" y="579.9976695296639" as="targetPoint" />
          </mxGeometry>
        </mxCell>
        <mxCell id="sMb85mMRudP5CPXSBzpP-85" value="" style="rounded=0;whiteSpace=wrap;html=1;" vertex="1" parent="sMb85mMRudP5CPXSBzpP-137">
          <mxGeometry x="880" y="540" width="170" height="40" as="geometry" />
        </mxCell>
        <mxCell id="sMb85mMRudP5CPXSBzpP-86" value="&lt;font style=&quot;font-size: 16px;&quot;&gt;Admin&lt;/font&gt;" style="text;html=1;strokeColor=none;fillColor=none;align=center;verticalAlign=middle;whiteSpace=wrap;rounded=0;" vertex="1" parent="sMb85mMRudP5CPXSBzpP-137">
          <mxGeometry x="930" y="545" width="70" height="30" as="geometry" />
        </mxCell>
        <mxCell id="sMb85mMRudP5CPXSBzpP-87" value="" style="group" vertex="1" connectable="0" parent="sMb85mMRudP5CPXSBzpP-137">
          <mxGeometry x="780" y="760" width="120" height="50" as="geometry" />
        </mxCell>
        <mxCell id="sMb85mMRudP5CPXSBzpP-88" value="" style="ellipse;whiteSpace=wrap;html=1;" vertex="1" parent="sMb85mMRudP5CPXSBzpP-87">
          <mxGeometry width="120" height="50" as="geometry" />
        </mxCell>
        <mxCell id="sMb85mMRudP5CPXSBzpP-89" value="&lt;font style=&quot;font-size: 16px;&quot;&gt;Email&lt;/font&gt;" style="text;html=1;strokeColor=none;fillColor=none;align=center;verticalAlign=middle;whiteSpace=wrap;rounded=0;" vertex="1" parent="sMb85mMRudP5CPXSBzpP-87">
          <mxGeometry x="30" y="10" width="60" height="30" as="geometry" />
        </mxCell>
        <mxCell id="sMb85mMRudP5CPXSBzpP-90" value="" style="group" vertex="1" connectable="0" parent="sMb85mMRudP5CPXSBzpP-137">
          <mxGeometry x="1040" y="760" width="120" height="50" as="geometry" />
        </mxCell>
        <mxCell id="sMb85mMRudP5CPXSBzpP-91" value="" style="ellipse;whiteSpace=wrap;html=1;" vertex="1" parent="sMb85mMRudP5CPXSBzpP-90">
          <mxGeometry width="120" height="50" as="geometry" />
        </mxCell>
        <mxCell id="sMb85mMRudP5CPXSBzpP-92" value="&lt;span style=&quot;font-size: 16px;&quot;&gt;password&lt;/span&gt;" style="text;html=1;strokeColor=none;fillColor=none;align=center;verticalAlign=middle;whiteSpace=wrap;rounded=0;" vertex="1" parent="sMb85mMRudP5CPXSBzpP-90">
          <mxGeometry x="30" y="10" width="60" height="30" as="geometry" />
        </mxCell>
        <mxCell id="sMb85mMRudP5CPXSBzpP-96" value="" style="endArrow=none;html=1;rounded=0;exitX=0.25;exitY=1;exitDx=0;exitDy=0;entryX=0.5;entryY=0;entryDx=0;entryDy=0;" edge="1" parent="sMb85mMRudP5CPXSBzpP-137" source="sMb85mMRudP5CPXSBzpP-85" target="sMb85mMRudP5CPXSBzpP-88">
          <mxGeometry width="50" height="50" relative="1" as="geometry">
            <mxPoint x="840" y="480" as="sourcePoint" />
            <mxPoint x="817.5" y="680" as="targetPoint" />
          </mxGeometry>
        </mxCell>
        <mxCell id="sMb85mMRudP5CPXSBzpP-98" value="" style="endArrow=none;html=1;rounded=0;exitX=0.553;exitY=1.025;exitDx=0;exitDy=0;entryX=0.5;entryY=0;entryDx=0;entryDy=0;exitPerimeter=0;" edge="1" parent="sMb85mMRudP5CPXSBzpP-137" source="sMb85mMRudP5CPXSBzpP-85" target="sMb85mMRudP5CPXSBzpP-91">
          <mxGeometry width="50" height="50" relative="1" as="geometry">
            <mxPoint x="1080" y="570" as="sourcePoint" />
            <mxPoint x="1150" y="840" as="targetPoint" />
          </mxGeometry>
        </mxCell>
        <mxCell id="sMb85mMRudP5CPXSBzpP-107" value="" style="group" vertex="1" connectable="0" parent="sMb85mMRudP5CPXSBzpP-137">
          <mxGeometry x="330" y="65" width="150" height="80" as="geometry" />
        </mxCell>
        <mxCell id="sMb85mMRudP5CPXSBzpP-104" value="&lt;font style=&quot;font-size: 16px;&quot;&gt;Downloads&lt;/font&gt;" style="rhombus;whiteSpace=wrap;html=1;" vertex="1" parent="sMb85mMRudP5CPXSBzpP-107">
          <mxGeometry width="150" height="80" as="geometry" />
        </mxCell>
        <mxCell id="sMb85mMRudP5CPXSBzpP-108" value="" style="group" vertex="1" connectable="0" parent="sMb85mMRudP5CPXSBzpP-137">
          <mxGeometry x="340" y="220" width="150" height="80" as="geometry" />
        </mxCell>
        <mxCell id="sMb85mMRudP5CPXSBzpP-109" value="&lt;span style=&quot;font-size: 16px;&quot;&gt;Emails&lt;/span&gt;" style="rhombus;whiteSpace=wrap;html=1;" vertex="1" parent="sMb85mMRudP5CPXSBzpP-108">
          <mxGeometry width="150" height="80" as="geometry" />
        </mxCell>
        <mxCell id="sMb85mMRudP5CPXSBzpP-110" value="" style="endArrow=none;html=1;rounded=0;exitX=1;exitY=0.75;exitDx=0;exitDy=0;entryX=0;entryY=0.5;entryDx=0;entryDy=0;" edge="1" parent="sMb85mMRudP5CPXSBzpP-137" target="sMb85mMRudP5CPXSBzpP-109" source="sMb85mMRudP5CPXSBzpP-1">
          <mxGeometry width="50" height="50" relative="1" as="geometry">
            <mxPoint x="400" y="425" as="sourcePoint" />
            <mxPoint x="320" y="285" as="targetPoint" />
          </mxGeometry>
        </mxCell>
        <mxCell id="sMb85mMRudP5CPXSBzpP-111" value="" style="endArrow=none;html=1;rounded=0;entryX=1;entryY=0.5;entryDx=0;entryDy=0;exitX=0;exitY=0.75;exitDx=0;exitDy=0;" edge="1" parent="sMb85mMRudP5CPXSBzpP-137" target="sMb85mMRudP5CPXSBzpP-109" source="sMb85mMRudP5CPXSBzpP-17">
          <mxGeometry width="50" height="50" relative="1" as="geometry">
            <mxPoint x="620" y="220" as="sourcePoint" />
            <mxPoint x="440" y="415" as="targetPoint" />
          </mxGeometry>
        </mxCell>
        <mxCell id="sMb85mMRudP5CPXSBzpP-112" value="" style="group" vertex="1" connectable="0" parent="sMb85mMRudP5CPXSBzpP-137">
          <mxGeometry x="890" y="300" width="150" height="80" as="geometry" />
        </mxCell>
        <mxCell id="sMb85mMRudP5CPXSBzpP-113" value="&lt;font style=&quot;font-size: 16px;&quot;&gt;Uploads&lt;/font&gt;" style="rhombus;whiteSpace=wrap;html=1;" vertex="1" parent="sMb85mMRudP5CPXSBzpP-112">
          <mxGeometry width="150" height="80" as="geometry" />
        </mxCell>
        <mxCell id="sMb85mMRudP5CPXSBzpP-116" value="" style="group" vertex="1" connectable="0" parent="sMb85mMRudP5CPXSBzpP-137">
          <mxGeometry x="590" y="560" width="150" height="80" as="geometry" />
        </mxCell>
        <mxCell id="sMb85mMRudP5CPXSBzpP-117" value="&lt;font style=&quot;font-size: 16px;&quot;&gt;Views&lt;/font&gt;" style="rhombus;whiteSpace=wrap;html=1;" vertex="1" parent="sMb85mMRudP5CPXSBzpP-137">
          <mxGeometry x="590" y="450" width="150" height="80" as="geometry" />
        </mxCell>
        <mxCell id="sMb85mMRudP5CPXSBzpP-119" value="" style="endArrow=none;html=1;rounded=0;entryX=1;entryY=0.5;entryDx=0;entryDy=0;exitX=0;exitY=0.5;exitDx=0;exitDy=0;" edge="1" parent="sMb85mMRudP5CPXSBzpP-137" target="sMb85mMRudP5CPXSBzpP-117" source="sMb85mMRudP5CPXSBzpP-85">
          <mxGeometry width="50" height="50" relative="1" as="geometry">
            <mxPoint x="660" y="765" as="sourcePoint" />
            <mxPoint x="710" y="715" as="targetPoint" />
          </mxGeometry>
        </mxCell>
        <mxCell id="sMb85mMRudP5CPXSBzpP-118" value="" style="endArrow=none;html=1;rounded=0;exitX=1;exitY=0.5;exitDx=0;exitDy=0;entryX=0;entryY=0.5;entryDx=0;entryDy=0;" edge="1" parent="sMb85mMRudP5CPXSBzpP-137" target="sMb85mMRudP5CPXSBzpP-117" source="sMb85mMRudP5CPXSBzpP-32">
          <mxGeometry width="50" height="50" relative="1" as="geometry">
            <mxPoint x="660" y="765" as="sourcePoint" />
            <mxPoint x="580" y="625" as="targetPoint" />
          </mxGeometry>
        </mxCell>
        <mxCell id="sMb85mMRudP5CPXSBzpP-114" value="" style="endArrow=none;html=1;rounded=0;exitX=1;exitY=0.5;exitDx=0;exitDy=0;entryX=0.5;entryY=0;entryDx=0;entryDy=0;" edge="1" parent="sMb85mMRudP5CPXSBzpP-137" target="sMb85mMRudP5CPXSBzpP-113" source="sMb85mMRudP5CPXSBzpP-17">
          <mxGeometry width="50" height="50" relative="1" as="geometry">
            <mxPoint x="1070" y="475" as="sourcePoint" />
            <mxPoint x="990" y="335" as="targetPoint" />
          </mxGeometry>
        </mxCell>
        <mxCell id="sMb85mMRudP5CPXSBzpP-115" value="" style="endArrow=none;html=1;rounded=0;entryX=0.5;entryY=1;entryDx=0;entryDy=0;exitX=0.5;exitY=0;exitDx=0;exitDy=0;" edge="1" parent="sMb85mMRudP5CPXSBzpP-137" target="sMb85mMRudP5CPXSBzpP-113" source="sMb85mMRudP5CPXSBzpP-85">
          <mxGeometry width="50" height="50" relative="1" as="geometry">
            <mxPoint x="950" y="539" as="sourcePoint" />
            <mxPoint x="1000" y="489" as="targetPoint" />
          </mxGeometry>
        </mxCell>
        <mxCell id="sMb85mMRudP5CPXSBzpP-120" value="" style="group" vertex="1" connectable="0" parent="sMb85mMRudP5CPXSBzpP-137">
          <mxGeometry x="290" y="340" width="150" height="80" as="geometry" />
        </mxCell>
        <mxCell id="sMb85mMRudP5CPXSBzpP-121" value="&lt;font style=&quot;font-size: 16px;&quot;&gt;Has&lt;/font&gt;" style="rhombus;whiteSpace=wrap;html=1;" vertex="1" parent="sMb85mMRudP5CPXSBzpP-120">
          <mxGeometry width="150" height="80" as="geometry" />
        </mxCell>
        <mxCell id="sMb85mMRudP5CPXSBzpP-123" value="" style="endArrow=none;html=1;rounded=0;entryX=0.5;entryY=0;entryDx=0;entryDy=0;exitX=0;exitY=1;exitDx=0;exitDy=0;" edge="1" parent="sMb85mMRudP5CPXSBzpP-137" target="sMb85mMRudP5CPXSBzpP-121" source="sMb85mMRudP5CPXSBzpP-17">
          <mxGeometry width="50" height="50" relative="1" as="geometry">
            <mxPoint x="350" y="525" as="sourcePoint" />
            <mxPoint x="400" y="475" as="targetPoint" />
          </mxGeometry>
        </mxCell>
        <mxCell id="sMb85mMRudP5CPXSBzpP-122" value="" style="endArrow=none;html=1;rounded=0;exitX=0.5;exitY=0;exitDx=0;exitDy=0;entryX=0.5;entryY=1;entryDx=0;entryDy=0;" edge="1" parent="sMb85mMRudP5CPXSBzpP-137" target="sMb85mMRudP5CPXSBzpP-121" source="sMb85mMRudP5CPXSBzpP-32">
          <mxGeometry width="50" height="50" relative="1" as="geometry">
            <mxPoint x="350" y="525" as="sourcePoint" />
            <mxPoint x="270" y="385" as="targetPoint" />
          </mxGeometry>
        </mxCell>
        <mxCell id="sMb85mMRudP5CPXSBzpP-126" value="M" style="text;html=1;strokeColor=none;fillColor=none;align=center;verticalAlign=middle;whiteSpace=wrap;rounded=0;" vertex="1" parent="sMb85mMRudP5CPXSBzpP-137">
          <mxGeometry x="457" y="82" width="60" height="30" as="geometry" />
        </mxCell>
        <mxCell id="sMb85mMRudP5CPXSBzpP-127" value="M" style="text;html=1;strokeColor=none;fillColor=none;align=center;verticalAlign=middle;whiteSpace=wrap;rounded=0;" vertex="1" parent="sMb85mMRudP5CPXSBzpP-137">
          <mxGeometry x="304" y="230" width="60" height="30" as="geometry" />
        </mxCell>
        <mxCell id="sMb85mMRudP5CPXSBzpP-128" value="M" style="text;html=1;strokeColor=none;fillColor=none;align=center;verticalAlign=middle;whiteSpace=wrap;rounded=0;" vertex="1" parent="sMb85mMRudP5CPXSBzpP-137">
          <mxGeometry x="466" y="230" width="60" height="30" as="geometry" />
        </mxCell>
        <mxCell id="sMb85mMRudP5CPXSBzpP-129" value="1" style="text;html=1;strokeColor=none;fillColor=none;align=center;verticalAlign=middle;whiteSpace=wrap;rounded=0;" vertex="1" parent="sMb85mMRudP5CPXSBzpP-137">
          <mxGeometry x="332" y="316" width="60" height="30" as="geometry" />
        </mxCell>
        <mxCell id="sMb85mMRudP5CPXSBzpP-132" value="1" style="text;html=1;strokeColor=none;fillColor=none;align=center;verticalAlign=middle;whiteSpace=wrap;rounded=0;" vertex="1" parent="sMb85mMRudP5CPXSBzpP-137">
          <mxGeometry x="946" y="373" width="60" height="30" as="geometry" />
        </mxCell>
        <mxCell id="sMb85mMRudP5CPXSBzpP-133" value="M" style="text;html=1;strokeColor=none;fillColor=none;align=center;verticalAlign=middle;whiteSpace=wrap;rounded=0;" vertex="1" parent="sMb85mMRudP5CPXSBzpP-137">
          <mxGeometry x="943" y="274" width="60" height="30" as="geometry" />
        </mxCell>
        <mxCell id="sMb85mMRudP5CPXSBzpP-135" value="1" style="text;html=1;strokeColor=none;fillColor=none;align=center;verticalAlign=middle;whiteSpace=wrap;rounded=0;" vertex="1" parent="sMb85mMRudP5CPXSBzpP-137">
          <mxGeometry x="717" y="464" width="60" height="30" as="geometry" />
        </mxCell>
        <mxCell id="sMb85mMRudP5CPXSBzpP-136" value="&lt;font style=&quot;font-size: 24px;&quot;&gt;Entity-Relationship Diagram for the File Server Database&lt;/font&gt;" style="text;html=1;strokeColor=none;fillColor=none;align=center;verticalAlign=middle;whiteSpace=wrap;rounded=0;" vertex="1" parent="sMb85mMRudP5CPXSBzpP-137">
          <mxGeometry x="194" y="870" width="738" height="94" as="geometry" />
        </mxCell>
        <mxCell id="sMb85mMRudP5CPXSBzpP-105" value="" style="endArrow=none;html=1;rounded=0;exitX=1;exitY=0.5;exitDx=0;exitDy=0;entryX=0;entryY=0.5;entryDx=0;entryDy=0;" edge="1" parent="sMb85mMRudP5CPXSBzpP-137" source="sMb85mMRudP5CPXSBzpP-1" target="sMb85mMRudP5CPXSBzpP-104">
          <mxGeometry width="50" height="50" relative="1" as="geometry">
            <mxPoint x="450" y="310" as="sourcePoint" />
            <mxPoint x="370" y="170" as="targetPoint" />
          </mxGeometry>
        </mxCell>
        <mxCell id="sMb85mMRudP5CPXSBzpP-106" value="" style="endArrow=none;html=1;rounded=0;entryX=1;entryY=0.5;entryDx=0;entryDy=0;exitX=0;exitY=0.5;exitDx=0;exitDy=0;" edge="1" parent="sMb85mMRudP5CPXSBzpP-137" source="sMb85mMRudP5CPXSBzpP-17" target="sMb85mMRudP5CPXSBzpP-104">
          <mxGeometry width="50" height="50" relative="1" as="geometry">
            <mxPoint x="450" y="310" as="sourcePoint" />
            <mxPoint x="500" y="260" as="targetPoint" />
          </mxGeometry>
        </mxCell>
      </root>
    </mxGraphModel>
  </diagram>
</mxfile>
